<svg width="300" height="283" viewBox="0 0 300 283" fill="none" xmlns="http://www.w3.org/2000/svg">
<path fill-rule="evenodd" clip-rule="evenodd" d="M0 4.98365L7.85627 0L104.744 141.322H104.988L104.866 141.5L104.988 141.678H104.744L7.85627 283L0 278.016L72.7542 141.5L0 4.98365Z" fill="#285994"/>
<path fill-rule="evenodd" clip-rule="evenodd" d="M65.0264 4.98365L72.8826 0L169.771 141.322H170.015L169.893 141.5L170.015 141.678H169.771L72.8826 283L65.0264 278.016L137.781 141.5L65.0264 4.98365Z" fill="#285994"/>
<path fill-rule="evenodd" clip-rule="evenodd" d="M129.985 4.98365L137.842 0L234.73 141.322H234.974L234.852 141.5L234.974 141.678H234.73L137.842 283L129.985 278.016L202.74 141.5L129.985 4.98365Z" fill="#285994"/>
<path fill-rule="evenodd" clip-rule="evenodd" d="M195.012 4.98365L202.868 0L299.756 141.322H300L299.878 141.5L300 141.678H299.756L202.868 283L195.012 278.016L267.766 141.5L195.012 4.98365Z" fill="#285994"/>
</svg>
